<?xml version="1.0" encoding="UTF-8"?><svg id="Layer_2" xmlns="http://www.w3.org/2000/svg" viewBox="0 0 314.76 102.33"><g id="layer-1"><path d="M173.61,46.01c0-4.07-3.42-5.84-7.03-5.84h-8.78v21.41h8.78c3.67,0,7.77-1.19,7.77-5.6,0-2.48-1.53-4.65-4.22-5.38,2.14-.67,3.49-2.39,3.49-4.59ZM172.73,55.95c0,3.4-3.46,4.04-6.15,4.04h-7.13v-8.56h7.34c2.87,0,5.9,1.19,5.93,4.53ZM166.8,49.87h-7.34v-8.29h7.13c2.66,0,5.47,1.31,5.47,4.43s-2.69,3.85-5.26,3.85Z"/><rect x="248.81" y="3.48" width="1.62" height="21.41"/><path d="M167.65,78.09c2.42,0,4.83.89,6.67,2.72l1.13-.98c-2.14-2.14-4.98-3.21-7.8-3.21-7.34,0-11.07,5.35-11.01,11.07.03,5.78,3.79,10.83,11.01,10.83,2.81,0,5.66-1.07,7.8-3.21l-1.1-1.04c-1.83,1.8-4.28,2.72-6.7,2.72-6.18,0-9.36-4.34-9.42-9.36-.03-5.14,3.18-9.54,9.42-9.54Z"/><path d="M45.68,43.86h20.1c1.54,0,2.75-.32,3.71-.83,3.6-1.91,3.6-6.48,3.6-6.48,0-.62-.05-1.19-.15-1.71-1.04-5.6-7.16-5.6-7.16-5.6h-29.24c-3.65,0-7.31,3.65-7.31,7.31v29.24c0,3.65,3.65,7.31,7.31,7.31h29.24c5.05,0,6.61-3.49,7.09-5.65.21-.96.21-1.66.21-1.66,0-3.63-1.8-5.45-3.61-6.38-1.84-.93-3.7-.93-3.7-.93h-20.1c-1.83,0-1.83-1.83-1.83-1.83v-10.96c0-1.83,1.83-1.83,1.83-1.83Z"/><polygon points="204.77 23.29 191.26 23.29 191.26 14.85 203.8 14.85 203.8 13.36 191.26 13.36 191.26 5.04 204.41 5.04 204.41 3.48 189.64 3.48 189.64 24.89 204.77 24.89 204.77 23.29"/><path d="M73.09,0H0v102.33h73.09c14.62,0,29.24-14.62,29.24-29.24V29.24c0-14.62-14.62-29.24-29.24-29.24ZM87.71,42.03c0,5.05-4.09,9.14-9.14,9.14,5.05,0,9.14,4.09,9.14,9.14v12.79c0,14.62-14.62,14.62-14.62,14.62H14.62V14.62h58.47c14.62,0,14.62,14.62,14.62,14.62v12.79Z"/><path d="M275.29,25.16c3.18,0,5.84-1.22,8.07-3.46v-8.01h-9.02v1.44h7.46v5.99c-1.83,1.68-4.22,2.48-6.51,2.48-6.24,0-9.45-4.34-9.45-9.39-.03-4.95,3.18-9.54,9.45-9.54,2.42,0,5.02.92,6.88,2.75l.95-1.04c-2.17-2.14-5.02-3.21-7.83-3.21-6.51,0-11.07,4.37-11.04,11.07,0,5.84,3.76,10.92,11.04,10.92Z"/><path d="M274.68,88.52h7.46v5.99c-1.83,1.68-4.22,2.48-6.51,2.48-6.24,0-9.45-4.34-9.45-9.39-.03-4.95,3.18-9.54,9.45-9.54,2.42,0,5.02.92,6.88,2.75l.95-1.04c-2.17-2.14-5.02-3.21-7.83-3.21-6.51,0-11.07,4.37-11.04,11.07,0,5.84,3.76,10.92,11.04,10.92,3.18,0,5.84-1.22,8.07-3.45v-8.01h-9.02v1.44Z"/><polygon points="250.55 94.57 236.15 76.87 235.44 76.87 235.44 98.27 237.09 98.27 237.09 80.6 251.53 98.27 252.17 98.27 252.17 76.87 250.55 76.87 250.55 94.57"/><path d="M226.7,13.08c-3.61-.67-6.54-1.31-6.54-4.04,0-3.43,3.98-4.34,6.48-4.34,2.42.03,4.92.4,6.48,2.91l1.35-.79c-2.11-3.15-4.77-3.64-7.83-3.64-3.52,0-8.23,1.41-8.14,5.93,0,3.95,4.01,4.74,7.92,5.51,3.52.67,7.06,1.38,7.03,4.59,0,3.79-4.19,4.53-6.82,4.53s-5.99-1.28-7.31-3.88l-1.47.73c1.65,3.27,5.44,4.65,8.78,4.65,3.58,0,8.44-1.16,8.47-5.99,0-4.62-4.28-5.35-8.41-6.15Z"/><polygon points="313.14 3.48 313.14 21.18 298.74 3.48 298.04 3.48 298.04 24.89 299.69 24.89 299.69 7.21 314.12 24.89 314.76 24.89 314.76 3.48 313.14 3.48"/><polygon points="203.98 87.05 190.34 87.05 190.34 76.87 188.69 76.87 188.69 98.27 190.34 98.27 190.34 88.55 203.98 88.55 203.98 98.27 205.63 98.27 205.63 76.87 203.98 76.87 203.98 87.05"/><rect x="219.72" y="76.87" width="1.62" height="21.41"/><polygon points="193.7 61.58 195.35 61.58 195.35 53.02 203.73 40.2 203.73 40.17 201.81 40.17 194.53 51.43 187.28 40.17 185.35 40.17 185.35 40.2 193.7 53.02 193.7 61.58"/><path d="M164.87,3.48h-7.25v21.41h7.25c7.49,0,10.98-5.51,10.86-10.95-.12-5.26-3.61-10.46-10.86-10.46ZM164.87,23.29h-5.6V5.04h5.6c6.18,0,9.11,4.43,9.21,8.9.09,4.59-2.84,9.36-9.21,9.36Z"/></g></svg>