<?xml version="1.0" encoding="UTF-8"?><svg id="Layer_2" xmlns="http://www.w3.org/2000/svg" viewBox="0 0 95.72 30"><g id="layer-1"><path d="M52.07,3.38c.04,1.71-1.06,3.44-3.41,3.44h-2.28V.1h2.28c2.28,0,3.37,1.63,3.41,3.28ZM46.91.59v5.73h1.76c2,0,2.92-1.5,2.89-2.94-.03-1.4-.95-2.79-2.89-2.79h-1.76ZM56.95,3.2h3.94v.47h-3.94v2.65h4.24v.5h-4.75V.1h4.64v.49h-4.13v2.61ZM70.09,1.39c-.49-.79-1.28-.9-2.04-.91-.79,0-2.04.29-2.04,1.36,0,.85.92,1.06,2.05,1.27,1.3.25,2.64.48,2.64,1.93,0,1.52-1.54,1.88-2.66,1.88-1.05,0-2.24-.43-2.76-1.46l.46-.23c.41.82,1.47,1.22,2.29,1.22s2.14-.23,2.14-1.42c0-1.01-1.1-1.23-2.21-1.44-1.23-.24-2.49-.49-2.49-1.73-.03-1.42,1.45-1.86,2.55-1.86.96,0,1.8.15,2.46,1.14l-.42.25ZM75.01,6.82V.1h.51v6.72h-.51ZM85.49,1.33c-.59-.58-1.4-.86-2.16-.86-1.97,0-2.98,1.44-2.97,3,0,1.58,1.01,2.95,2.97,2.95.72,0,1.47-.25,2.04-.78v-1.88h-2.34v-.45h2.83v2.52c-.7.7-1.54,1.08-2.53,1.08-2.28,0-3.47-1.59-3.47-3.43,0-2.1,1.42-3.48,3.47-3.48.88,0,1.78.34,2.46,1.01l-.3.33ZM90.69.1l4.52,5.56V.1h.51v6.72h-.2l-4.53-5.55v5.55h-.52V.1h.22ZM51.41,13.45c0,.69-.42,1.23-1.09,1.44.84.23,1.32.91,1.32,1.69,0,1.38-1.29,1.76-2.44,1.76h-2.76v-6.72h2.76c1.13,0,2.21.56,2.21,1.83ZM46.97,14.66h2.3c.81,0,1.65-.25,1.65-1.21s-.88-1.39-1.72-1.39h-2.24v2.6ZM46.97,17.84h2.24c.84,0,1.93-.2,1.93-1.27,0-1.05-.96-1.42-1.86-1.42h-2.3v2.69ZM57.72,15.65l-2.62-4.02h0s.6,0,.6,0l2.28,3.53,2.28-3.53h.6s-2.63,4.03-2.63,4.03v2.69h-.52v-2.69ZM51.99,28.92c-.67.67-1.56,1.01-2.45,1.01-2.27,0-3.45-1.58-3.46-3.4-.02-1.8,1.15-3.48,3.46-3.48.88,0,1.78.34,2.45,1.01l-.36.31c-.58-.58-1.33-.85-2.09-.85-1.96,0-2.97,1.38-2.96,3,.02,1.57,1.02,2.94,2.96,2.94.76,0,1.53-.29,2.1-.85l.35.33ZM60.94,29.85v-3.05h-4.28v3.05h-.52v-6.72h.52v3.2h4.28v-3.2h.52v6.72h-.52ZM65.89,29.85v-6.72h.51v6.72h-.51ZM71.04,23.13l4.52,5.56v-5.56h.51v6.72h-.2l-4.53-5.55v5.55h-.52v-6.72h.22ZM85.59,24.37c-.59-.58-1.4-.86-2.16-.86-1.97,0-2.98,1.44-2.97,3,0,1.58,1.01,2.95,2.97,2.95.72,0,1.47-.25,2.04-.78v-1.88h-2.34v-.45h2.83v2.52c-.7.7-1.54,1.08-2.53,1.08-2.28,0-3.47-1.59-3.47-3.43,0-2.1,1.42-3.48,3.47-3.48.88,0,1.78.34,2.46,1.01l-.3.33ZM0,.13v29.87h21.34c4.27,0,8.54-4.27,8.54-8.54v-12.8C29.87,4.39,25.61.13,21.34.13H0ZM25.61,12.39c0,1.47-1.19,2.67-2.67,2.67,1.47,0,2.67,1.19,2.67,2.67v3.73c0,4.27-4.27,4.27-4.27,4.27H4.27V4.39h17.07c4.27,0,4.27,4.27,4.27,4.27v3.73ZM13.34,12.93h5.87c.45,0,.8-.09,1.08-.24,1.05-.56,1.05-1.89,1.05-1.89,0-.18-.02-.35-.04-.5-.3-1.63-2.09-1.63-2.09-1.63h-8.54c-1.07,0-2.13,1.07-2.13,2.13v8.54c0,1.07,1.07,2.13,2.13,2.13h8.54c1.47,0,1.93-1.02,2.07-1.65.06-.28.06-.48.06-.48,0-1.06-.53-1.59-1.05-1.86-.54-.27-1.08-.27-1.08-.27h-5.87c-.53,0-.53-.53-.53-.53v-3.2c0-.53.53-.53.53-.53Z"/></g></svg>