<?xml version="1.0" encoding="UTF-8"?><svg id="Layer_2" xmlns="http://www.w3.org/2000/svg" viewBox="0 0 180 320.83"><defs><style>.cls-1{fill:#1a314b;}.cls-2{fill:#c5813a;}.cls-3{fill:#e2ceb7;}</style></defs><g id="layer-1"><rect class="cls-1" width="180" height="320.83"/><path class="cls-3" d="M52.42,175.7h2.57v.1l-2.29,3.19h2.29v.27h-2.69v-.12l2.26-3.18h-2.14v-.25Z"/><path class="cls-3" d="M59.72,179.25v-1.61h-2.26v1.61h-.27v-3.55h.27v1.69h2.26v-1.69h.27v3.55h-.27Z"/><path class="cls-3" d="M65.29,179.25l-.39-.87h-2.12l-.39.87h-.29l1.59-3.55h.3l1.59,3.55h-.29ZM64.79,178.13l-.95-2.16-.95,2.16h1.91Z"/><path class="cls-3" d="M67.67,179.25v-3.55h.27v3.55h-.27Z"/><path class="cls-3" d="M75.78,176.56c0-.56-.44-.65-.91-.65-.68,0-1,.31-1,.72,0,.54.58.71,1.01.71h1.51v.22h-.32v.78c0,.38.09.72.44.72v.21c-.29.04-.52-.15-.59-.45-.26.42-.66.5-1.04.5-.86,0-1.31-.38-1.31-.99,0-.44.36-.75.72-.87-.37-.11-.65-.42-.65-.82,0-.55.45-.94,1.26-.94.57,0,1.14.15,1.14.88h-.24ZM75.85,177.55h-.97c-.7,0-1.05.4-1.05.76,0,.46.33.75,1.05.75.41,0,.98-.14.98-.74v-.78Z"/><path class="cls-3" d="M84.75,179.25l-.39-.87h-2.12l-.39.87h-.29l1.59-3.55h.3l1.59,3.55h-.29ZM84.25,178.13l-.95-2.16-.95,2.16h1.91Z"/><path class="cls-3" d="M89.43,176.39c-.26-.42-.67-.48-1.08-.48-.42,0-1.08.15-1.08.72,0,.45.49.56,1.09.67.68.13,1.39.25,1.39,1.02,0,.8-.81.99-1.4.99-.55,0-1.18-.23-1.46-.77l.24-.12c.22.43.78.64,1.21.64s1.13-.12,1.13-.75c0-.53-.58-.65-1.17-.76-.65-.13-1.31-.26-1.31-.91-.02-.75.77-.98,1.35-.98.51,0,.95.08,1.3.6l-.22.13Z"/><path class="cls-3" d="M94.33,176.39c-.26-.42-.67-.48-1.08-.48-.42,0-1.08.15-1.08.72,0,.45.49.56,1.09.67.68.13,1.39.25,1.39,1.02,0,.8-.81.99-1.4.99-.55,0-1.18-.23-1.46-.77l.24-.12c.22.43.78.64,1.21.64s1.13-.12,1.13-.75c0-.53-.58-.65-1.17-.76-.65-.13-1.31-.26-1.31-.91-.02-.75.77-.98,1.35-.98.51,0,.95.08,1.3.6l-.22.13Z"/><path class="cls-3" d="M100.36,177.48c0,.93-.6,1.83-1.79,1.83s-1.79-.9-1.79-1.84.59-1.83,1.79-1.83,1.8.88,1.79,1.84ZM97.05,177.48c0,.8.51,1.58,1.52,1.58s1.53-.78,1.53-1.58-.51-1.58-1.53-1.58-1.53.74-1.52,1.58Z"/><path class="cls-3" d="M105.63,178.76c-.36.35-.83.53-1.29.53-1.2,0-1.82-.84-1.83-1.8-.01-.95.61-1.84,1.83-1.84.47,0,.94.18,1.29.53l-.19.16c-.3-.3-.7-.45-1.11-.45-1.03,0-1.57.73-1.56,1.58.01.83.54,1.55,1.56,1.55.4,0,.81-.15,1.11-.45l.18.17Z"/><path class="cls-3" d="M107.97,179.25v-3.55h.27v3.55h-.27Z"/><path class="cls-3" d="M113.53,179.25l-.39-.87h-2.12l-.39.87h-.29l1.59-3.55h.3l1.59,3.55h-.29ZM113.04,178.13l-.95-2.16-.95,2.16h1.91Z"/><path class="cls-3" d="M116.4,175.95h-1.28v-.24h2.84v.24h-1.28v3.3h-.27v-3.3Z"/><path class="cls-3" d="M120.43,177.34h2.08v.25h-2.08v1.4h2.24v.26h-2.51v-3.55h2.45v.26h-2.18v1.38Z"/><path class="cls-3" d="M127.38,176.39c-.26-.42-.67-.48-1.08-.48-.42,0-1.08.15-1.08.72,0,.45.49.56,1.09.67.68.13,1.39.25,1.39,1.02,0,.8-.81.99-1.4.99-.55,0-1.18-.23-1.46-.77l.24-.12c.22.43.78.64,1.21.64s1.13-.12,1.13-.75c0-.53-.58-.65-1.17-.76-.65-.13-1.31-.26-1.31-.91-.02-.75.77-.98,1.35-.98.51,0,.95.08,1.3.6l-.22.13Z"/><polygon class="cls-2" points="100.52 141.52 78.58 163.47 78.58 164.37 79.48 164.37 101.42 142.42 101.42 141.52 100.52 141.52"/><polygon class="cls-2" points="78.58 141.52 78.58 147.25 78.61 147.25 79.85 146.01 79.85 142.8 91.76 142.8 91.76 141.52 78.58 141.52"/><polygon class="cls-2" points="100.15 159.86 100.15 163.09 88.24 163.09 88.24 164.37 101.42 164.37 101.42 158.64 101.37 158.64 100.15 159.86"/></g></svg>