<?xml version="1.0" encoding="UTF-8"?><svg id="Layer_2" xmlns="http://www.w3.org/2000/svg" viewBox="0 0 179.96 320.77"><defs><style>.cls-1{fill:#102733;}.cls-2{fill:#fff;}.cls-3{fill:aqua;}</style></defs><g id="layer-1"><rect class="cls-1" width="179.96" height="320.77"/><path class="cls-2" d="M62.38,153.15v2.39h4.68l-5.07,7.12v1.1h8.92v-2.58h-4.92l4.88-6.78v-1.25h-8.49ZM80.3,154.25c-1.22-1.08-2.47-1.4-4.13-1.4-1.93,0-4.47.86-4.47,3.31s2.39,3.14,4.38,3.29c1.5.09,2.11.39,2.11,1.12,0,.77-.92,1.29-1.91,1.27-1.18-.02-2.9-.65-3.65-1.48l-1.29,1.87c1.55,1.61,3.22,1.89,4.9,1.89,3.03,0,4.56-1.61,4.56-3.49,0-2.82-2.54-3.27-4.53-3.4-1.35-.09-1.98-.47-1.98-1.16s.69-1.05,1.93-1.05c1.01,0,1.87.24,2.62.95l1.46-1.72ZM82.99,150.44v2.73h-1.98v2.26h1.98v4.58c0,2.65,1.5,3.96,3.8,3.87.8-.02,1.42-.15,2.17-.45l-.73-2.24c-.39.19-.86.32-1.27.32-.82,0-1.38-.49-1.38-1.51v-4.58h2.94v-2.26h-2.92v-3.01l-2.62.28ZM89.93,153.15v10.61h2.62v-5.59c0-1.96,1.27-2.69,2.64-2.69.86,0,1.35.24,1.89.69l1.18-2.28c-.58-.58-1.63-1.01-2.73-1.01s-2.17.19-2.99,1.51l-.19-1.23h-2.43ZM109.2,159.39c.41-4.37-1.8-6.56-5.35-6.56s-5.63,2.32-5.63,5.55c0,3.4,2.17,5.66,5.82,5.66,1.61,0,3.44-.56,4.56-1.72l-1.68-1.66c-.6.62-1.87.99-2.84.99-1.85,0-2.99-.95-3.16-2.26h8.27ZM100.97,157.22c.39-1.38,1.55-2.07,2.97-2.07,1.5,0,2.58.69,2.75,2.07h-5.72ZM118.98,154.62c-.6-1.05-1.96-1.72-3.37-1.72-3.09-.02-5.52,1.89-5.52,5.55s2.32,5.66,5.46,5.64c1.18-.02,2.84-.62,3.44-1.87l.13,1.55h2.47v-10.61h-2.51l-.09,1.46ZM115.84,155.24c4.13,0,4.13,6.43,0,6.43-1.74,0-3.14-1.2-3.14-3.23s1.4-3.21,3.14-3.21ZM132.9,163.76v-5.68c0-1.4.88-2.62,2.3-2.62s2,1.18,2,2.58v5.72h2.62v-5.72c0-3.18-1.48-5.03-4.49-5.03-1.38,0-2.6.43-3.55,1.94-.6-1.46-1.87-1.98-3.14-1.98-1.01,0-2.23.39-2.79,1.46l-.19-1.29h-2.43v10.63h2.62v-5.68c0-1.4.84-2.67,2.26-2.67s2.17,1.27,2.17,2.67v5.68h2.62Z"/><path class="cls-2" d="M60.3,159.62c0,1.83-.48,3.57-1.39,5.12-.38-.21-.77-.4-1.18-.56-.62-.25-1.26-.44-1.91-.56.83-1.16,1.28-2.55,1.28-4,0-3.8-3.09-6.89-6.88-6.89-3.57,0-6.52,2.68-6.85,6.24-.02.22-.03.44-.03.65,0,.73.12,1.45.34,2.14.27.83.71,1.61,1.27,2.28l-2.27,2.27c-.97-1.09-1.7-2.39-2.12-3.79-.28-.94-.43-1.91-.43-2.91,0-5.56,4.52-10.09,10.07-10.09s10.08,4.52,10.08,10.09Z"/><path class="cls-3" d="M58.15,166.07c-.45-.34-.95-.61-1.48-.82-.78-.31-1.6-.47-2.44-.47-.54,0-1.07.06-1.58.19-1.33.33-2.51,1.05-3.41,2.1-.03.03-.06.07-.09.11l-.02.03c-.39.44-.88.79-1.42,1.01-.47.19-.97.29-1.48.29-.26,0-.51-.02-.76-.07-1.15-.23-2.12-.95-2.67-1.99l-.08-.15-1.99,2,.06.09c1.23,1.79,3.27,2.86,5.43,2.86.29,0,.58-.02.85-.06.27-.03.51-.08.73-.14.89-.22,1.75-.63,2.47-1.2l.04-.03c.36-.28.68-.6.97-.94.74-.87,1.82-1.37,2.96-1.37.66,0,1.3.17,1.87.48l.07.04.06-.04c.59-.41,1.14-.88,1.63-1.38.11-.11.22-.23.32-.34l.09-.1-.11-.08Z"/></g></svg>