<?xml version="1.0" encoding="UTF-8"?><svg id="Layer_2" xmlns="http://www.w3.org/2000/svg" viewBox="0 0 179.96 320.77"><defs><style>.cls-1{fill:#102733;}.cls-2{fill:#fff;}.cls-3{fill:aqua;}</style></defs><g id="layer-1"><rect class="cls-1" width="179.96" height="320.77"/><path class="cls-2" d="M111.37,158.76c0,3.88-1.01,7.58-2.95,10.86-.81-.45-1.64-.84-2.51-1.18-1.32-.52-2.67-.92-4.05-1.19,1.77-2.46,2.72-5.41,2.72-8.49,0-8.06-6.55-14.62-14.6-14.62-7.58,0-13.83,5.69-14.53,13.25-.05.47-.07.92-.07,1.37,0,1.55.25,3.09.73,4.55.57,1.76,1.5,3.42,2.7,4.85l-4.81,4.82c-2.06-2.32-3.61-5.08-4.5-8.04-.6-1.99-.9-4.06-.9-6.17,0-11.81,9.6-21.41,21.38-21.41s21.39,9.6,21.39,21.41Z"/><path class="cls-3" d="M106.81,172.46c-.96-.71-2.02-1.3-3.14-1.75-1.65-.66-3.4-1-5.19-1-1.14,0-2.27.14-3.36.41-2.83.69-5.34,2.24-7.24,4.46-.07.07-.13.15-.2.23l-.05.06c-.83.93-1.87,1.67-3.01,2.15-1,.41-2.06.62-3.14.62-.55,0-1.09-.05-1.6-.16-2.43-.48-4.5-2.02-5.66-4.22l-.17-.32-4.22,4.24.13.18c2.62,3.8,6.93,6.07,11.53,6.07.62,0,1.23-.04,1.8-.12.57-.07,1.08-.17,1.56-.29,1.89-.46,3.7-1.34,5.24-2.55l.08-.06c.76-.6,1.45-1.27,2.05-1.99,1.57-1.85,3.86-2.91,6.28-2.91,1.39,0,2.76.35,3.96,1.02l.14.08.14-.09c1.26-.87,2.43-1.86,3.46-2.94.23-.23.46-.48.67-.73l.19-.22-.23-.17Z"/></g></svg>